<svg width="478" height="130" viewBox="0 0 478 130" fill="none" xmlns="http://www.w3.org/2000/svg">
<path d="M16.2305 93V25.8H29.0945L57.7025 73.224H50.8865L79.0145 25.8H91.7825L91.9745 93H77.3825L77.2865 48.168H79.9745L57.5105 85.896H50.5025L27.5585 48.168H30.8225V93H16.2305ZM154.478 94.152C149.166 94.152 144.238 93.288 139.694 91.56C135.214 89.832 131.31 87.4 127.982 84.264C124.718 81.128 122.158 77.448 120.302 73.224C118.51 69 117.614 64.392 117.614 59.4C117.614 54.408 118.51 49.8 120.302 45.576C122.158 41.352 124.75 37.672 128.078 34.536C131.406 31.4 135.31 28.968 139.79 27.24C144.27 25.512 149.134 24.648 154.382 24.648C159.694 24.648 164.558 25.512 168.974 27.24C173.454 28.968 177.326 31.4 180.59 34.536C183.918 37.672 186.51 41.352 188.366 45.576C190.222 49.736 191.15 54.344 191.15 59.4C191.15 64.392 190.222 69.032 188.366 73.32C186.51 77.544 183.918 81.224 180.59 84.36C177.326 87.432 173.454 89.832 168.974 91.56C164.558 93.288 159.726 94.152 154.478 94.152ZM154.382 80.904C157.39 80.904 160.142 80.392 162.638 79.368C165.198 78.344 167.438 76.872 169.358 74.952C171.278 73.032 172.75 70.76 173.774 68.136C174.862 65.512 175.406 62.6 175.406 59.4C175.406 56.2 174.862 53.288 173.774 50.664C172.75 48.04 171.278 45.768 169.358 43.848C167.502 41.928 165.294 40.456 162.734 39.432C160.174 38.408 157.39 37.896 154.382 37.896C151.374 37.896 148.59 38.408 146.03 39.432C143.534 40.456 141.326 41.928 139.406 43.848C137.486 45.768 135.982 48.04 134.894 50.664C133.87 53.288 133.358 56.2 133.358 59.4C133.358 62.536 133.87 65.448 134.894 68.136C135.982 70.76 137.454 73.032 139.31 74.952C141.23 76.872 143.47 78.344 146.03 79.368C148.59 80.392 151.374 80.904 154.382 80.904ZM234.762 93L205.77 25.8H222.57L247.914 85.32H238.026L263.754 25.8H279.21L250.122 93H234.762ZM298.741 93V25.8H314.293V93H298.741ZM366.241 94.152C360.865 94.152 355.713 93.448 350.785 92.04C345.857 90.568 341.889 88.68 338.881 86.376L344.161 74.664C347.041 76.712 350.433 78.408 354.337 79.752C358.305 81.032 362.305 81.672 366.337 81.672C369.409 81.672 371.873 81.384 373.729 80.808C375.649 80.168 377.057 79.304 377.953 78.216C378.849 77.128 379.297 75.88 379.297 74.472C379.297 72.68 378.593 71.272 377.185 70.248C375.777 69.16 373.921 68.296 371.617 67.656C369.313 66.952 366.753 66.312 363.937 65.736C361.185 65.096 358.401 64.328 355.585 63.432C352.833 62.536 350.305 61.384 348.001 59.976C345.697 58.568 343.809 56.712 342.337 54.408C340.929 52.104 340.225 49.16 340.225 45.576C340.225 41.736 341.249 38.248 343.297 35.112C345.409 31.912 348.545 29.384 352.705 27.528C356.929 25.608 362.209 24.648 368.545 24.648C372.769 24.648 376.929 25.16 381.025 26.184C385.121 27.144 388.737 28.616 391.873 30.6L387.073 42.408C383.937 40.616 380.801 39.304 377.665 38.472C374.529 37.576 371.457 37.128 368.449 37.128C365.441 37.128 362.977 37.48 361.057 38.184C359.137 38.888 357.761 39.816 356.929 40.968C356.097 42.056 355.681 43.336 355.681 44.808C355.681 46.536 356.385 47.944 357.793 49.032C359.201 50.056 361.057 50.888 363.361 51.528C365.665 52.168 368.193 52.808 370.945 53.448C373.761 54.088 376.545 54.824 379.297 55.656C382.113 56.488 384.673 57.608 386.977 59.016C389.281 60.424 391.137 62.28 392.545 64.584C394.017 66.888 394.753 69.8 394.753 73.32C394.753 77.096 393.697 80.552 391.585 83.688C389.473 86.824 386.305 89.352 382.081 91.272C377.921 93.192 372.641 94.152 366.241 94.152ZM432.282 93V38.472H410.778V25.8H469.338V38.472H447.834V93H432.282Z" fill="#E26D19"/>
<path fill-rule="evenodd" clip-rule="evenodd" d="M147.268 49.0683C147.433 48.9759 147.636 48.9769 147.799 49.0735L164.741 59.0485C164.902 59.143 165 59.3152 165 59.5C165 59.6848 164.902 59.857 164.741 59.9515L147.799 69.9265C147.636 70.0231 147.433 70.0241 147.268 69.9317C147.102 69.8383 147 69.664 147 69.475V49.525C147 49.336 147.102 49.1617 147.268 49.0683ZM152 66.2325L148.059 68.5531L163.434 59.5L152 66.2325Z" fill="#E26D18"/>
<path d="M23.7494 122.216C22.7534 122.216 21.8294 122.054 20.9774 121.73C20.1374 121.406 19.4054 120.95 18.7814 120.362C18.1694 119.774 17.6894 119.084 17.3414 118.292C17.0054 117.5 16.8374 116.636 16.8374 115.7C16.8374 114.764 17.0054 113.9 17.3414 113.108C17.6894 112.316 18.1754 111.626 18.7994 111.038C19.4234 110.45 20.1554 109.994 20.9954 109.67C21.8354 109.346 22.7474 109.184 23.7314 109.184C24.7274 109.184 25.6394 109.346 26.4674 109.67C27.3074 109.994 28.0334 110.45 28.6454 111.038C29.2694 111.626 29.7554 112.316 30.1034 113.108C30.4514 113.888 30.6254 114.752 30.6254 115.7C30.6254 116.636 30.4514 117.506 30.1034 118.31C29.7554 119.102 29.2694 119.792 28.6454 120.38C28.0334 120.956 27.3074 121.406 26.4674 121.73C25.6394 122.054 24.7334 122.216 23.7494 122.216ZM23.7314 119.732C24.2954 119.732 24.8114 119.636 25.2794 119.444C25.7594 119.252 26.1794 118.976 26.5394 118.616C26.8994 118.256 27.1754 117.83 27.3674 117.338C27.5714 116.846 27.6734 116.3 27.6734 115.7C27.6734 115.1 27.5714 114.554 27.3674 114.062C27.1754 113.57 26.8994 113.144 26.5394 112.784C26.1914 112.424 25.7774 112.148 25.2974 111.956C24.8174 111.764 24.2954 111.668 23.7314 111.668C23.1674 111.668 22.6454 111.764 22.1654 111.956C21.6974 112.148 21.2834 112.424 20.9234 112.784C20.5634 113.144 20.2814 113.57 20.0774 114.062C19.8854 114.554 19.7894 115.1 19.7894 115.7C19.7894 116.288 19.8854 116.834 20.0774 117.338C20.2814 117.83 20.5574 118.256 20.9054 118.616C21.2654 118.976 21.6854 119.252 22.1654 119.444C22.6454 119.636 23.1674 119.732 23.7314 119.732ZM49.7946 122.216C48.7866 122.216 47.8206 122.084 46.8966 121.82C45.9726 121.544 45.2286 121.19 44.6646 120.758L45.6546 118.562C46.1946 118.946 46.8306 119.264 47.5626 119.516C48.3066 119.756 49.0566 119.876 49.8126 119.876C50.3886 119.876 50.8506 119.822 51.1986 119.714C51.5586 119.594 51.8226 119.432 51.9906 119.228C52.1586 119.024 52.2426 118.79 52.2426 118.526C52.2426 118.19 52.1106 117.926 51.8466 117.734C51.5826 117.53 51.2346 117.368 50.8026 117.248C50.3706 117.116 49.8906 116.996 49.3626 116.888C48.8466 116.768 48.3246 116.624 47.7966 116.456C47.2806 116.288 46.8066 116.072 46.3746 115.808C45.9426 115.544 45.5886 115.196 45.3126 114.764C45.0486 114.332 44.9166 113.78 44.9166 113.108C44.9166 112.388 45.1086 111.734 45.4926 111.146C45.8886 110.546 46.4766 110.072 47.2566 109.724C48.0486 109.364 49.0386 109.184 50.2266 109.184C51.0186 109.184 51.7986 109.28 52.5666 109.472C53.3346 109.652 54.0126 109.928 54.6006 110.3L53.7006 112.514C53.1126 112.178 52.5246 111.932 51.9366 111.776C51.3486 111.608 50.7726 111.524 50.2086 111.524C49.6446 111.524 49.1826 111.59 48.8226 111.722C48.4626 111.854 48.2046 112.028 48.0486 112.244C47.8926 112.448 47.8146 112.688 47.8146 112.964C47.8146 113.288 47.9466 113.552 48.2106 113.756C48.4746 113.948 48.8226 114.104 49.2546 114.224C49.6866 114.344 50.1606 114.464 50.6766 114.584C51.2046 114.704 51.7266 114.842 52.2426 114.998C52.7706 115.154 53.2506 115.364 53.6826 115.628C54.1146 115.892 54.4626 116.24 54.7266 116.672C55.0026 117.104 55.1406 117.65 55.1406 118.31C55.1406 119.018 54.9426 119.666 54.5466 120.254C54.1506 120.842 53.5566 121.316 52.7646 121.676C51.9846 122.036 50.9946 122.216 49.7946 122.216ZM61.0031 122V109.4H63.9191V122H61.0031ZM73.3894 122V111.776H69.3574V109.4H80.3374V111.776H76.3054V122H73.3894ZM88.4583 114.476H94.5243V116.744H88.4583V114.476ZM88.6743 119.66H95.5323V122H85.7763V109.4H95.2983V111.74H88.6743V119.66ZM110.69 122V109.4H116.144C117.272 109.4 118.244 109.586 119.06 109.958C119.876 110.318 120.506 110.84 120.95 111.524C121.394 112.208 121.616 113.024 121.616 113.972C121.616 114.908 121.394 115.718 120.95 116.402C120.506 117.086 119.876 117.614 119.06 117.986C118.244 118.346 117.272 118.526 116.144 118.526H112.31L113.606 117.212V122H110.69ZM113.606 117.536L112.31 116.15H115.982C116.882 116.15 117.554 115.958 117.998 115.574C118.442 115.19 118.664 114.656 118.664 113.972C118.664 113.276 118.442 112.736 117.998 112.352C117.554 111.968 116.882 111.776 115.982 111.776H112.31L113.606 110.39V117.536ZM125.279 122L130.895 109.4H133.775L139.409 122H136.349L131.741 110.876H132.893L128.267 122H125.279ZM128.087 119.3L128.861 117.086H135.341L136.133 119.3H128.087ZM144.586 122V109.4H150.04C151.168 109.4 152.14 109.586 152.956 109.958C153.772 110.318 154.402 110.84 154.846 111.524C155.29 112.208 155.512 113.024 155.512 113.972C155.512 114.908 155.29 115.718 154.846 116.402C154.402 117.074 153.772 117.59 152.956 117.95C152.14 118.31 151.168 118.49 150.04 118.49H146.206L147.502 117.212V122H144.586ZM152.596 122L149.446 117.428H152.56L155.746 122H152.596ZM147.502 117.536L146.206 116.168H149.878C150.778 116.168 151.45 115.976 151.894 115.592C152.338 115.196 152.56 114.656 152.56 113.972C152.56 113.276 152.338 112.736 151.894 112.352C151.45 111.968 150.778 111.776 149.878 111.776H146.206L147.502 110.39V117.536ZM160.037 122L165.653 109.4H168.533L174.167 122H171.107L166.499 110.876H167.651L163.025 122H160.037ZM162.845 119.3L163.619 117.086H170.099L170.891 119.3H162.845ZM186.656 122L192.272 109.4H195.152L200.786 122H197.726L193.118 110.876H194.27L189.644 122H186.656ZM189.464 119.3L190.238 117.086H196.718L197.51 119.3H189.464ZM205.963 122V109.4H208.375L213.739 118.292H212.461L217.735 109.4H220.129L220.165 122H217.429L217.411 113.594H217.915L213.703 120.668H212.389L208.087 113.594H208.699V122H205.963ZM225.368 122L230.984 109.4H233.864L239.498 122H236.438L231.83 110.876H232.982L228.356 122H225.368ZM228.176 119.3L228.95 117.086H235.43L236.222 119.3H228.176ZM244.676 122V109.4H247.088L254.522 118.472H253.352V109.4H256.232V122H253.838L246.386 112.928H247.556V122H244.676ZM265.693 122V111.776H261.661V109.4H272.641V111.776H268.609V122H265.693ZM280.762 114.476H286.828V116.744H280.762V114.476ZM280.978 119.66H287.836V122H278.08V109.4H287.602V111.74H280.978V119.66ZM298.166 122.216C297.158 122.216 296.192 122.084 295.268 121.82C294.344 121.544 293.6 121.19 293.036 120.758L294.026 118.562C294.566 118.946 295.202 119.264 295.934 119.516C296.678 119.756 297.428 119.876 298.184 119.876C298.76 119.876 299.222 119.822 299.57 119.714C299.93 119.594 300.194 119.432 300.362 119.228C300.53 119.024 300.614 118.79 300.614 118.526C300.614 118.19 300.482 117.926 300.218 117.734C299.954 117.53 299.606 117.368 299.174 117.248C298.742 117.116 298.262 116.996 297.734 116.888C297.218 116.768 296.696 116.624 296.168 116.456C295.652 116.288 295.178 116.072 294.746 115.808C294.314 115.544 293.96 115.196 293.684 114.764C293.42 114.332 293.288 113.78 293.288 113.108C293.288 112.388 293.48 111.734 293.864 111.146C294.26 110.546 294.848 110.072 295.628 109.724C296.42 109.364 297.41 109.184 298.598 109.184C299.39 109.184 300.17 109.28 300.938 109.472C301.706 109.652 302.384 109.928 302.972 110.3L302.072 112.514C301.484 112.178 300.896 111.932 300.308 111.776C299.72 111.608 299.144 111.524 298.58 111.524C298.016 111.524 297.554 111.59 297.194 111.722C296.834 111.854 296.576 112.028 296.42 112.244C296.264 112.448 296.186 112.688 296.186 112.964C296.186 113.288 296.318 113.552 296.582 113.756C296.846 113.948 297.194 114.104 297.626 114.224C298.058 114.344 298.532 114.464 299.048 114.584C299.576 114.704 300.098 114.842 300.614 114.998C301.142 115.154 301.622 115.364 302.054 115.628C302.486 115.892 302.834 116.24 303.098 116.672C303.374 117.104 303.512 117.65 303.512 118.31C303.512 119.018 303.314 119.666 302.918 120.254C302.522 120.842 301.928 121.316 301.136 121.676C300.356 122.036 299.366 122.216 298.166 122.216ZM318.342 122V109.4H324.066C325.434 109.4 326.64 109.664 327.684 110.192C328.728 110.708 329.544 111.434 330.132 112.37C330.72 113.306 331.014 114.416 331.014 115.7C331.014 116.972 330.72 118.082 330.132 119.03C329.544 119.966 328.728 120.698 327.684 121.226C326.64 121.742 325.434 122 324.066 122H318.342ZM321.258 119.606H323.922C324.762 119.606 325.488 119.45 326.1 119.138C326.724 118.814 327.204 118.358 327.54 117.77C327.888 117.182 328.062 116.492 328.062 115.7C328.062 114.896 327.888 114.206 327.54 113.63C327.204 113.042 326.724 112.592 326.1 112.28C325.488 111.956 324.762 111.794 323.922 111.794H321.258V119.606ZM339.765 114.476H345.831V116.744H339.765V114.476ZM339.981 119.66H346.839V122H337.083V109.4H346.605V111.74H339.981V119.66ZM364.697 115.07H370.745V117.41H364.697V115.07ZM364.913 122H361.997V109.4H371.519V111.74H364.913V122ZM377.363 122V109.4H380.279V122H377.363ZM387.139 122V109.4H390.055V119.624H396.373V122H387.139ZM401.872 122V109.4H404.284L409.648 118.292H408.37L413.644 109.4H416.038L416.074 122H413.338L413.32 113.594H413.824L409.612 120.668H408.298L403.996 113.594H404.608V122H401.872ZM425.616 114.476H431.682V116.744H425.616V114.476ZM425.832 119.66H432.69V122H422.934V109.4H432.456V111.74H425.832V119.66ZM443.02 122.216C442.012 122.216 441.046 122.084 440.122 121.82C439.198 121.544 438.454 121.19 437.89 120.758L438.88 118.562C439.42 118.946 440.056 119.264 440.788 119.516C441.532 119.756 442.282 119.876 443.038 119.876C443.614 119.876 444.076 119.822 444.424 119.714C444.784 119.594 445.048 119.432 445.216 119.228C445.384 119.024 445.468 118.79 445.468 118.526C445.468 118.19 445.336 117.926 445.072 117.734C444.808 117.53 444.46 117.368 444.028 117.248C443.596 117.116 443.116 116.996 442.588 116.888C442.072 116.768 441.55 116.624 441.022 116.456C440.506 116.288 440.032 116.072 439.6 115.808C439.168 115.544 438.814 115.196 438.538 114.764C438.274 114.332 438.142 113.78 438.142 113.108C438.142 112.388 438.334 111.734 438.718 111.146C439.114 110.546 439.702 110.072 440.482 109.724C441.274 109.364 442.264 109.184 443.452 109.184C444.244 109.184 445.024 109.28 445.792 109.472C446.56 109.652 447.238 109.928 447.826 110.3L446.926 112.514C446.338 112.178 445.75 111.932 445.162 111.776C444.574 111.608 443.998 111.524 443.434 111.524C442.87 111.524 442.408 111.59 442.048 111.722C441.688 111.854 441.43 112.028 441.274 112.244C441.118 112.448 441.04 112.688 441.04 112.964C441.04 113.288 441.172 113.552 441.436 113.756C441.7 113.948 442.048 114.104 442.48 114.224C442.912 114.344 443.386 114.464 443.902 114.584C444.43 114.704 444.952 114.842 445.468 114.998C445.996 115.154 446.476 115.364 446.908 115.628C447.34 115.892 447.688 116.24 447.952 116.672C448.228 117.104 448.366 117.65 448.366 118.31C448.366 119.018 448.168 119.666 447.772 120.254C447.376 120.842 446.782 121.316 445.99 121.676C445.21 122.036 444.22 122.216 443.02 122.216Z" fill="white"/>
</svg>
